<svg width="18" height="16" viewBox="0 0 18 16" fill="none" xmlns="http://www.w3.org/2000/svg">
<path fill-rule="evenodd" clip-rule="evenodd" d="M1.86982 4.19051C0.837145 4.19051 0 5.02765 0 6.06032V10.7211C0 12.4938 0 13.3801 0.362784 14.0491C0.639771 14.5599 1.05914 14.9793 1.56993 15.2563C2.23895 15.6191 3.12529 15.6191 4.89796 15.6191H13.102C14.8747 15.6191 15.761 15.6191 16.4301 15.2563C16.9409 14.9793 17.3602 14.5599 17.6372 14.0491C18 13.3801 18 12.4938 18 10.7211V6.06032C18 5.02765 17.1629 4.19051 16.1302 4.19051C15.4353 4.19051 14.7977 3.80512 14.4747 3.18984L13.6667 1.65082L13.6667 1.6508C13.5654 1.45794 13.5148 1.36151 13.4588 1.27694C13.1278 0.776984 12.59 0.451901 11.9935 0.391243C11.8926 0.380981 11.7836 0.380981 11.5658 0.380981H6.4342C6.21636 0.380981 6.10744 0.380981 6.00654 0.391243C5.41003 0.451901 4.8722 0.776984 4.54121 1.27694C4.48522 1.36151 4.43459 1.45795 4.33333 1.65082L3.52535 3.18984C3.20233 3.80512 2.56473 4.19051 1.86982 4.19051ZM11 8.95241C11 9.86095 10.1976 10.7619 9 10.7619C7.80235 10.7619 7 9.86095 7 8.95241C7 8.04387 7.80235 7.14289 9 7.14289C10.1976 7.14289 11 8.04387 11 8.95241ZM13 8.95241C13 11.0564 11.2091 12.7619 9 12.7619C6.79086 12.7619 5 11.0564 5 8.95241C5 6.84847 6.79086 5.14289 9 5.14289C11.2091 5.14289 13 6.84847 13 8.95241Z" fill="#A1C14B"/>
</svg>
