<svg width="34" height="33" viewBox="0 0 34 33" fill="none" xmlns="http://www.w3.org/2000/svg">
<path d="M6 5.5H8.56345C9.3134 5.5 9.68837 5.5 9.95964 5.71179C10.2309 5.92359 10.3218 6.28737 10.5037 7.01493L10.833 8.33211C11.1085 9.43416 11.2463 9.98518 11.5975 10.3625C11.7417 10.5175 11.9095 10.6485 12.0948 10.7508C12.5461 11 13.114 11 14.25 11V11" stroke="#A1C14B" stroke-width="2" stroke-linecap="round"/>
<path d="M25.25 23.375H10.8825C10.2127 23.375 9.87773 23.375 9.65085 23.2486C9.39152 23.1042 9.20976 22.852 9.15475 22.5603C9.10662 22.3051 9.21253 21.9874 9.42435 21.3519V21.3519C9.65893 20.6482 9.77621 20.2964 9.98302 20.0283C10.2202 19.7209 10.5417 19.4892 10.9083 19.3614C11.228 19.25 11.5989 19.25 12.3406 19.25H19.75" stroke="#A1C14B" stroke-width="2" stroke-linecap="round" stroke-linejoin="round"/>
<path d="M22.6389 19.25H13.1943C12.2166 19.25 11.3822 18.5432 11.2215 17.5788L10.4161 12.7466C10.2637 11.8323 10.9688 11 11.8957 11H26.382C27.1253 11 27.6088 11.7823 27.2764 12.4472L24.4278 18.1444C24.089 18.822 23.3965 19.25 22.6389 19.25Z" fill="#A1C14B" stroke="#A1C14B" stroke-width="2" stroke-linecap="round"/>
<ellipse cx="23.875" cy="27.5" rx="1.375" ry="1.375" fill="#A1C14B" stroke="#A1C14B" stroke-width="2" stroke-linecap="round"/>
<ellipse cx="12.875" cy="27.5" rx="1.375" ry="1.375" fill="#A1C14B" stroke="#A1C14B" stroke-width="2" stroke-linecap="round"/>
</svg>
