<svg width="24" height="24" viewBox="0 0 24 24" fill="none" xmlns="http://www.w3.org/2000/svg">
<path fill-rule="evenodd" clip-rule="evenodd" d="M11 17.7143C14.866 17.7143 18 14.7295 18 11.0476C18 7.36575 14.866 4.38098 11 4.38098C7.13401 4.38098 4 7.36575 4 11.0476C4 14.7295 7.13401 17.7143 11 17.7143ZM11 6.23812C10.35 6.23812 9.70528 6.36 9.1023 6.59787C8.49926 6.83577 7.94825 7.18564 7.48192 7.62977C7.01548 8.074 6.64273 8.60404 6.38746 9.19097C6.13213 9.77804 6 10.4091 6 11.0476C6 11.5999 6.44772 12.0476 7 12.0476C7.55228 12.0476 8 11.5999 8 11.0476C8 10.6857 8.0748 10.326 8.2215 9.98864C8.36827 9.65119 8.5848 9.34131 8.86123 9.07805C9.13776 8.81468 9.46867 8.60334 9.83623 8.45834C10.2039 8.31332 10.5994 8.23812 11 8.23812C11.5523 8.23812 12 7.79041 12 7.23812C12 6.68584 11.5523 6.23812 11 6.23812Z" fill="white"/>
<path d="M20 19.619L18 17.7142" stroke="white" stroke-width="2" stroke-linecap="round"/>
</svg>
